<?xml version="1.0" encoding="UTF-8"?>
<svg version="1.1" xmlns="http://www.w3.org/2000/svg" width="384" height="129">
<path d="M0 0 C126.72 0 253.44 0 384 0 C384 42.57 384 85.14 384 129 C257.28 129 130.56 129 0 129 C0 86.43 0 43.86 0 0 Z " fill="#FDFEFE" transform="translate(0,0)"/>
<path d="M0 0 C1.78442383 1.70825195 1.78442383 1.70825195 3.39453125 3.92578125 C3.98959473 4.73998535 4.5846582 5.55418945 5.19775391 6.39306641 C8.11093738 10.60696144 10.93172505 14.86913854 13.6875 19.1875 C14.79530737 20.91032703 15.90337387 22.63298747 17.01171875 24.35546875 C17.52452393 25.15799072 18.0373291 25.9605127 18.56567383 26.78735352 C19.79899642 28.68992417 21.0719211 30.55360987 22.3671875 32.4140625 C24.35744433 35.56609604 24.56974023 37.33738425 24 41 C22.9375 42.9375 22.9375 42.9375 21 44 C16.28439024 44 13.33285584 42.77036885 9.2578125 40.4375 C8.45746582 39.98246094 7.65711914 39.52742188 6.83251953 39.05859375 C6.22778809 38.70925781 5.62305664 38.35992187 5 38 C4.93045564 45.62349115 4.87716626 53.24694936 4.84456348 60.87068558 C4.8289148 64.41081201 4.80769164 67.95072123 4.77368164 71.49072266 C4.73481712 75.56154452 4.72028426 79.63213861 4.70703125 83.703125 C4.69154739 84.97303284 4.67606354 86.24294067 4.66011047 87.55133057 C4.65977058 89.32271393 4.65977058 89.32271393 4.65942383 91.12988281 C4.65276199 92.16912903 4.64610016 93.20837524 4.63923645 94.27911377 C5.05175596 97.39034451 5.84221897 98.75547142 8 101 C9.93744199 101.59086 9.93744199 101.59086 12 101.4375 C12.680625 101.43621094 13.36125 101.43492188 14.0625 101.43359375 C16.71252818 100.84054309 17.41118676 100.23157548 19 98 C19.29520386 95.26411959 19.41718158 92.74424114 19.40625 90.0078125 C19.41708618 89.22485809 19.42792236 88.44190369 19.43908691 87.63522339 C19.47336638 85.13173173 19.48894085 82.62869552 19.5 80.125 C19.5145918 76.83550072 19.54833803 73.54701475 19.59375 70.2578125 C19.59072876 69.50557404 19.58770752 68.75333557 19.58459473 67.978302 C19.64865339 63.47575607 20.1917236 60.56314505 23 57 C26.75047482 54.49968346 28.55856266 54.46396446 33 55 C35.76333281 56.99900672 37.67349696 58.59236363 38.46710205 62.01379395 C38.66248842 64.47578152 38.69297031 66.88975669 38.6640625 69.359375 C38.66884613 70.26318909 38.67362976 71.16700317 38.67855835 72.09820557 C38.68195443 74.00787091 38.67277239 75.91759463 38.65185547 77.82714844 C38.62520896 80.72725747 38.65154699 83.62345239 38.68359375 86.5234375 C38.68028717 88.38542511 38.6738758 90.24741031 38.6640625 92.109375 C38.67924423 93.39421783 38.67924423 93.39421783 38.69473267 94.70501709 C38.55185591 102.17532599 35.83024121 107.60601155 31.078125 113.3046875 C24.58153926 118.88508807 17.91954886 121.69472931 9.2578125 121.34765625 C2.07114736 120.24105902 -4.18969193 116.35314017 -9 111 C-14.54335017 103.084153 -14.67140689 95.39869171 -14.48828125 86.0234375 C-14.47893443 84.60284684 -14.47182717 83.18223986 -14.46684265 81.7616272 C-14.44791898 78.05574599 -14.39895017 74.35087343 -14.34332275 70.64538574 C-14.29180975 66.85096881 -14.26926089 63.05638594 -14.24414062 59.26171875 C-14.19081239 51.84069024 -14.10568378 44.42048742 -14 37 C-14.66386719 37.33773437 -15.32773438 37.67546875 -16.01171875 38.0234375 C-16.89472656 38.46945313 -17.77773437 38.91546875 -18.6875 39.375 C-19.55761719 39.81585938 -20.42773438 40.25671875 -21.32421875 40.7109375 C-26.014557 42.97051651 -29.7032816 44.69087631 -35 44 C-36.9375 42.3125 -36.9375 42.3125 -38 40 C-37.77335093 34.99628592 -34.89463115 32.10493576 -31.6875 28.5625 C-30.5947846 27.32315245 -29.50234477 26.08356189 -28.41015625 24.84375 C-27.56541748 23.89435547 -27.56541748 23.89435547 -26.70361328 22.92578125 C-23.97193852 19.83786917 -21.30072307 16.69886465 -18.625 13.5625 C-17.22428434 11.92742058 -15.8227463 10.29307597 -14.41894531 8.66064453 C-13.40111991 7.46944557 -12.3909174 6.27171702 -11.38574219 5.06982422 C-10.85368164 4.43705566 -10.32162109 3.80428711 -9.7734375 3.15234375 C-9.29052246 2.57347412 -8.80760742 1.99460449 -8.31005859 1.39819336 C-5.58696643 -1.50809603 -3.63062139 -1.13369125 0 0 Z " fill="#14C4BE" transform="translate(268,1)"/>
<path d="M0 0 C3.70762068 0.69517888 5.41970445 1.83042236 8 4.5625 C8 5.8825 8 7.2025 8 8.5625 C8.66 8.5625 9.32 8.5625 10 8.5625 C10.33 7.5725 10.66 6.5825 11 5.5625 C17.2475955 1.08190121 23.44220437 -0.51718509 31 0.5625 C40.97172883 2.62765094 48.1575767 7.15959578 54 15.5625 C58.51880006 24.07003559 59.57571337 33.26768587 57.234375 42.62109375 C54.07470987 51.86186043 49.37027015 59.09364701 40.67578125 63.828125 C32.1653713 67.6224051 24.73421624 67.5546898 16.0078125 64.51171875 C13.7575031 63.44785652 11.96907103 62.07584829 10 60.5625 C9.99383667 61.5683313 9.99383667 61.5683313 9.98754883 62.59448242 C9.95455357 65.64720391 9.8839038 68.6979453 9.8125 71.75 C9.80669922 72.80509766 9.80089844 73.86019531 9.79492188 74.94726562 C9.57298387 82.76441532 9.57298387 82.76441532 6.703125 86.76171875 C2.57087971 89.51455846 0.88623057 89.33809215 -4 88.5625 C-6.98700096 85.78030371 -7.92202312 84.09715106 -8.5146637 80.03369141 C-8.54129713 78.6607258 -8.54618469 77.28722733 -8.53344727 75.9140625 C-8.54206284 75.16058533 -8.55067841 74.40710815 -8.55955505 73.63079834 C-8.58218948 71.14934578 -8.57548186 68.66902479 -8.56640625 66.1875 C-8.57164269 64.45784165 -8.57791925 62.72818616 -8.58518982 60.99853516 C-8.59558909 57.37714175 -8.59103908 53.7561414 -8.57641602 50.13476562 C-8.55922158 45.49735411 -8.58273324 40.86118084 -8.61790562 36.22390747 C-8.63988023 32.65331841 -8.63843818 29.08302569 -8.6301403 25.51239014 C-8.62932095 23.80278159 -8.6361814 22.09315125 -8.65091133 20.38360596 C-8.66836121 17.99194492 -8.65381479 15.60250955 -8.63110352 13.2109375 C-8.64279572 12.5074115 -8.65448792 11.8038855 -8.66653442 11.07904053 C-8.59262674 7.24784048 -8.07075087 5.65102707 -5.64805603 2.61962891 C-3 0.5625 -3 0.5625 0 0 Z " fill="#1A87A5" transform="translate(326,39.4375)"/>
<path d="M0 0 C5.9404458 4.68788669 5.9404458 4.68788669 7.16015625 8.49609375 C7.32408519 11.66928974 6.85379646 13.79292178 4.89453125 16.30078125 C1.42794639 17.72296991 -0.81469315 17.80631015 -4.54296875 17.30078125 C-6.51030486 16.17370369 -8.2127983 14.92902851 -9.96484375 13.4921875 C-13.92360998 10.50351497 -18.82590961 10.84951025 -23.54296875 11.30078125 C-26.20141092 12.14598258 -26.20141092 12.14598258 -27.54296875 14.30078125 C-28.20973753 17.75828074 -28.20973753 17.75828074 -27.54296875 21.30078125 C-24.28030895 25.63960632 -19.78177857 27.12653521 -14.91796875 29.11328125 C-4.66598535 33.48777567 5.93355098 38.39121118 10.45703125 49.30078125 C11.36824821 57.2156541 11.02273507 64.58810957 6.45703125 71.30078125 C1.12102853 77.76778455 -6.59410861 80.77075892 -14.7890625 81.6484375 C-26.76659087 81.97291707 -36.27978514 78.8681926 -45.21484375 70.7890625 C-47.5114754 68.33115054 -48.50878609 66.49068491 -49.10546875 63.17578125 C-48.54296875 60.30078125 -48.54296875 60.30078125 -46.98046875 57.92578125 C-44.48504904 56.26216811 -42.70884985 55.49482463 -39.6796875 55.6328125 C-35.5570022 56.92162271 -32.34334722 59.80243685 -28.99609375 62.453125 C-24.49880451 65.8404145 -19.9683501 65.8368496 -14.54296875 65.30078125 C-10.20600266 63.75005329 -10.20600266 63.75005329 -7.54296875 60.30078125 C-7.04265669 56.88506272 -7.04265669 56.88506272 -7.54296875 53.30078125 C-11.7510846 48.98811593 -17.31672442 47.01801962 -22.73046875 44.61328125 C-41.37295379 36.00291327 -41.37295379 36.00291327 -45.66796875 26.30078125 C-47.52439322 19.56957311 -47.41727951 13.36426608 -43.93359375 7.21875 C-33.9083798 -6.60816025 -14.14989577 -9.45499948 0 0 Z " fill="#1A87A5" transform="translate(48.54296875,35.69921875)"/>
<path d="M0 0 C3.33761045 2.15090451 4.73470933 3.20412799 6 7 C6.1116467 9.69616646 6.16765939 12.36716691 6.17700195 15.06396484 C6.18357315 15.88542496 6.19014435 16.70688507 6.19691467 17.55323792 C6.21663064 20.27247204 6.22830526 22.99165103 6.23828125 25.7109375 C6.24235678 26.63971333 6.2464323 27.56848915 6.25063133 28.5254097 C6.27148285 33.43946358 6.28578965 38.35348959 6.29516602 43.26757812 C6.3062404 48.34421875 6.34065474 53.42042226 6.38033772 58.49690819 C6.40647007 62.40026672 6.41485474 66.30352045 6.41844749 70.20695877 C6.42332067 72.07846663 6.4349554 73.94996959 6.45348549 75.82139206 C6.47780969 78.44036405 6.47692466 81.05819594 6.4699707 83.67724609 C6.48278076 84.44936935 6.49559082 85.22149261 6.50878906 86.01701355 C6.47289535 89.72713223 6.12422694 91.80706378 4.09562683 94.95767212 C1.59794652 97.39182788 0.6503235 97.92774183 -2.8125 98.3125 C-6.74932188 97.92653707 -8.23396679 96.76603321 -11 94 C-12.23212643 90.30362071 -12.15552039 86.87780074 -12.16113281 83.02783203 C-12.16609772 82.21612549 -12.17106262 81.40441895 -12.17617798 80.56811523 C-12.19078984 77.88133905 -12.19759973 75.1946219 -12.203125 72.5078125 C-12.20887695 70.64077757 -12.21463468 68.77374266 -12.22039795 66.90670776 C-12.23090495 62.99102503 -12.23674969 59.07536282 -12.24023438 55.15966797 C-12.24572059 50.14363999 -12.26975261 45.12788326 -12.29820633 40.11194038 C-12.31683427 36.25490528 -12.32203838 32.39793551 -12.32357025 28.54085922 C-12.3265966 26.69169506 -12.33462455 24.84253204 -12.34775543 22.99341202 C-12.36482037 20.40571724 -12.36293477 17.81868534 -12.35644531 15.23095703 C-12.3656601 14.46818451 -12.37487488 13.70541199 -12.3843689 12.91952515 C-12.34913422 8.43178719 -11.80047895 5.54943231 -9 2 C-5.48746854 -0.34168764 -4.13530644 -0.49623677 0 0 Z " fill="#238DA9" transform="translate(198,19)"/>
<path d="M0 0 C3.78569215 1.19179197 5.03351092 1.89636611 7.375 5.0625 C7.76955787 8.0103527 7.92232315 10.58427283 7.89257812 13.53125 C7.8995874 14.38372314 7.90659668 15.23619629 7.91381836 16.11450195 C7.93141568 18.9308332 7.9197696 21.74615864 7.90625 24.5625 C7.90894442 26.52018425 7.91282642 28.4778672 7.91784668 30.43554688 C7.92374408 34.53789007 7.91517093 38.63988482 7.89648438 42.7421875 C7.87369475 48.00170628 7.88681653 53.26040864 7.91077423 58.51989746 C7.92522563 62.5622371 7.92062923 66.60438305 7.91026306 70.64672852 C7.90759396 72.58601986 7.91087197 74.52532877 7.92018127 76.46459961 C7.93033602 79.1747905 7.91486128 81.88365775 7.89257812 84.59375 C7.90067505 85.39594971 7.90877197 86.19814941 7.91711426 87.0246582 C7.86237079 90.61700308 7.69820684 92.64449271 5.46765137 95.52929688 C1.94093099 98.1131858 -0.24646137 98.41278309 -4.625 98.0625 C-7.7609157 96.28265595 -8.46602736 95.53941793 -9.625 92.0625 C-9.74699315 89.30564245 -9.81350905 86.57282979 -9.83374023 83.81494141 C-9.84352402 82.97397415 -9.8533078 82.1330069 -9.86338806 81.26655579 C-9.89331372 78.48240744 -9.9147168 75.6983069 -9.93359375 72.9140625 C-9.94016558 71.96322155 -9.9467374 71.0123806 -9.95350838 70.03272629 C-9.98608584 65.00197588 -10.01054347 59.97124656 -10.0300293 54.94042969 C-10.04786091 50.77507832 -10.08271295 46.61040158 -10.13256836 42.4453125 C-10.1926889 37.41674859 -10.22349319 32.38881145 -10.23320198 27.35990524 C-10.24176958 25.44369589 -10.26061978 23.52750388 -10.2899456 21.61149979 C-10.32878782 18.92986963 -10.32990517 16.25069151 -10.32202148 13.56884766 C-10.34202209 12.77802292 -10.36202271 11.98719818 -10.38262939 11.17240906 C-10.34380979 8.2305684 -10.20250791 5.81406429 -8.36992073 3.42914963 C-5.4711002 0.84125697 -3.92192563 0.06761941 0 0 Z " fill="#1987A4" transform="translate(76.625,18.9375)"/>
<path d="M0 0 C4.11208761 1.37069587 5.11495418 2.46009358 7.375 6.125 C7.76233412 9.04755273 7.92293483 11.58971796 7.89257812 14.5078125 C7.8995874 15.33931824 7.90659668 16.17082397 7.91381836 17.02752686 C7.93138468 19.76869367 7.91978071 22.50882318 7.90625 25.25 C7.90894531 27.15901894 7.91282806 29.06803654 7.91784668 30.97705078 C7.92373987 34.97506805 7.91518451 38.97272749 7.89648438 42.97070312 C7.87369495 48.09221886 7.88681899 53.21289612 7.91077423 58.3343811 C7.92523702 62.27553613 7.920624 66.21649277 7.91026306 70.15765381 C7.90759711 72.0458791 7.91086092 73.93412248 7.92018127 75.82232666 C7.93035482 78.4627647 7.91483517 81.10185006 7.89257812 83.7421875 C7.90067505 84.52051941 7.90877197 85.29885132 7.91711426 86.10076904 C7.83977776 91.0598339 6.93767186 93.65439275 3.375 97.125 C0.56584526 98.52957737 -1.51310534 98.37395157 -4.625 98.125 C-7.7609157 96.34515595 -8.46602736 95.60191793 -9.625 92.125 C-9.74699315 89.36814245 -9.81350905 86.63532979 -9.83374023 83.87744141 C-9.84352402 83.03647415 -9.8533078 82.1955069 -9.86338806 81.32905579 C-9.89331372 78.54490744 -9.9147168 75.7608069 -9.93359375 72.9765625 C-9.94016558 72.02572155 -9.9467374 71.0748806 -9.95350838 70.09522629 C-9.98608584 65.06447588 -10.01054347 60.03374656 -10.0300293 55.00292969 C-10.04786091 50.83757832 -10.08271295 46.67290158 -10.13256836 42.5078125 C-10.1926889 37.47924859 -10.22349319 32.45131145 -10.23320198 27.42240524 C-10.24176958 25.50619589 -10.26061978 23.59000388 -10.2899456 21.67399979 C-10.32878782 18.99236963 -10.32990517 16.31319151 -10.32202148 13.63134766 C-10.34202209 12.84052292 -10.36202271 12.04969818 -10.38262939 11.23490906 C-10.3438197 8.29381956 -10.2037848 5.87721275 -8.36992073 3.49384689 C-5.48666765 0.92300664 -3.89407478 0.13427844 0 0 Z " fill="#1986A4" transform="translate(168.625,18.875)"/>
<path d="M0 0 C1.78442383 1.70825195 1.78442383 1.70825195 3.39453125 3.92578125 C3.98959473 4.73998535 4.5846582 5.55418945 5.19775391 6.39306641 C8.11093738 10.60696144 10.93172505 14.86913854 13.6875 19.1875 C14.79530737 20.91032703 15.90337387 22.63298747 17.01171875 24.35546875 C17.52452393 25.15799072 18.0373291 25.9605127 18.56567383 26.78735352 C19.79899642 28.68992417 21.0719211 30.55360987 22.3671875 32.4140625 C24.35744433 35.56609604 24.56974023 37.33738425 24 41 C22.9375 42.9375 22.9375 42.9375 21 44 C14.41495861 43.62464448 10.08837011 41.10162012 4.60546875 37.79492188 C0.213811 35.28085693 -2.82139965 34.26019995 -8 35 C-11.62380629 36.28627944 -15.08248392 37.86897205 -18.5625 39.5 C-29.91207876 44.79700032 -29.91207876 44.79700032 -35 44 C-36.9375 42.3125 -36.9375 42.3125 -38 40 C-37.77335093 34.99628592 -34.89463115 32.10493576 -31.6875 28.5625 C-30.5947846 27.32315245 -29.50234477 26.08356189 -28.41015625 24.84375 C-27.56541748 23.89435547 -27.56541748 23.89435547 -26.70361328 22.92578125 C-23.97193852 19.83786917 -21.30072307 16.69886465 -18.625 13.5625 C-17.22428434 11.92742058 -15.8227463 10.29307597 -14.41894531 8.66064453 C-13.40111991 7.46944557 -12.3909174 6.27171702 -11.38574219 5.06982422 C-10.85368164 4.43705566 -10.32162109 3.80428711 -9.7734375 3.15234375 C-9.29052246 2.57347412 -8.80760742 1.99460449 -8.31005859 1.39819336 C-5.58696643 -1.50809603 -3.63062139 -1.13369125 0 0 Z " fill="#4259F1" transform="translate(268,1)"/>
<path d="M0 0 C0.33 0 0.66 0 1 0 C1 16.5 1 33 1 50 C-16.49 50 -33.98 50 -52 50 C-51.01 48.02 -50.02 46.04 -49 44 C-48.50773187 41.11494825 -48.50773187 41.11494825 -48.48828125 38.1640625 C-48.45283203 37.10058594 -48.41738281 36.03710938 -48.38085938 34.94140625 C-48.35830078 33.84699219 -48.33574219 32.75257812 -48.3125 31.625 C-48.27833984 30.50738281 -48.24417969 29.38976562 -48.20898438 28.23828125 C-48.12683927 25.49228778 -48.05757872 22.74660018 -48 20 C-47.32453125 20.34933594 -46.6490625 20.69867188 -45.953125 21.05859375 C-45.06109375 21.51363281 -44.1690625 21.96867187 -43.25 22.4375 C-41.92742187 23.11619141 -41.92742187 23.11619141 -40.578125 23.80859375 C-34.21668285 26.74835111 -27.67138725 26.99831877 -20.92578125 25.1640625 C-11.84535623 21.76887222 -6.68842614 17.01086203 -2.625 8.25 C-1.50123903 5.53342999 -0.65811959 2.86475586 0 0 Z " fill="#FDFEFE" transform="translate(383,79)"/>
<path d="M0 0 C4.4297642 0.79102932 5.89210172 1.98974785 8.5 5.625 C8.98390404 9.30972765 8.85509247 11.06507878 6.84765625 14.23046875 C6.09355469 15.08253906 5.33945313 15.93460938 4.5625 16.8125 C3.75039062 17.7509375 2.93828125 18.689375 2.1015625 19.65625 C1.24304688 20.6359375 0.38453125 21.615625 -0.5 22.625 C-2.20458748 24.67406415 -3.88244038 26.74309323 -5.5625 28.8125 C-6.875 30.41666667 -8.1875 32.02083333 -9.5 33.625 C-8.015 34.12 -8.015 34.12 -6.5 34.625 C-3.9524939 37.09330902 -1.77582642 39.90701302 0.5 42.625 C1.31082031 43.52605469 2.12164062 44.42710938 2.95703125 45.35546875 C3.77558594 46.29003906 4.59414062 47.22460938 5.4375 48.1875 C6.59572266 49.48880859 6.59572266 49.48880859 7.77734375 50.81640625 C9.94867954 54.35652061 9.97259524 56.53872199 9.5 60.625 C7.375 63.5625 7.375 63.5625 4.5 65.625 C0.76252993 66.1422618 -0.87950268 66.07976831 -3.95703125 63.82421875 C-4.73433594 62.99535156 -5.51164062 62.16648438 -6.3125 61.3125 C-7.17101562 60.40113281 -8.02953125 59.48976562 -8.9140625 58.55078125 C-12.17830284 54.85755464 -15.32372118 51.09125082 -18.3828125 47.2265625 C-20.84679427 44.19886534 -23.51021555 41.41535379 -26.28515625 38.671875 C-28.1705414 35.4952132 -27.95704384 33.2503647 -27.5 29.625 C-26.09154465 27.26091211 -24.81839061 25.43480091 -23.0625 23.375 C-22.61237549 22.82070312 -22.16225098 22.26640625 -21.69848633 21.6953125 C-20.76815613 20.55329919 -19.830519 19.41720029 -18.88574219 18.28710938 C-17.57329698 16.71291505 -16.28961738 15.11486746 -15.0078125 13.515625 C-4.85464789 0.86690141 -4.85464789 0.86690141 0 0 Z " fill="#1A87A5" transform="translate(114.5,51.375)"/>
<path d="M0 0 C2.67969882 2.04717052 3.8471607 3.23579444 4.5146637 6.573349 C4.52086227 7.54421951 4.52706085 8.51509003 4.53344727 9.51538086 C4.5492836 10.62010239 4.56511993 11.72482391 4.58143616 12.86302185 C4.57399635 14.64592369 4.57399635 14.64592369 4.56640625 16.46484375 C4.57260483 17.69030411 4.57880341 18.91576447 4.58518982 20.17835999 C4.5922936 22.76985886 4.58910438 25.36140331 4.57641602 27.95288086 C4.56256352 31.91931164 4.59660275 35.88337838 4.63476562 39.84960938 C4.63571691 42.36718808 4.63385749 44.88476974 4.62890625 47.40234375 C4.64216446 48.58892075 4.65542267 49.77549774 4.66908264 50.99803162 C4.56549919 60.15436762 4.56549919 60.15436762 1.64819336 63.25219727 C-1.62530231 65.41269837 -3.15070037 65.72174368 -7 65 C-9.69990662 63.20006226 -11.5418865 61.916227 -13 59 C-13.1158454 57.30115232 -13.16957147 55.59789713 -13.19287109 53.89526367 C-13.20893402 52.83043259 -13.22499695 51.7656015 -13.24154663 50.66850281 C-13.28593193 45.79650454 -13.32705853 40.92464331 -13.35009766 36.05249023 C-13.36666521 33.48110916 -13.39396529 30.90977428 -13.43212891 28.33862305 C-13.48682553 24.63566133 -13.50876159 20.93377975 -13.5234375 17.23046875 C-13.54610687 16.0813652 -13.56877625 14.93226166 -13.59213257 13.74833679 C-13.5685647 4.86470662 -13.5685647 4.86470662 -10.59838867 1.77490234 C-6.5725001 -0.97509389 -4.79536937 -0.68505277 0 0 Z " fill="#1785A3" transform="translate(144,52)"/>
<path d="M0 0 C3.46236126 2.39067801 5.74528805 5.0530761 7.625 8.8125 C8.27463655 16.42709233 8.63972424 22.76911438 3.625 28.8125 C-1.16292098 32.54707837 -4.9535661 33.48167433 -11.01171875 33.1875 C-15.38885263 32.49294652 -17.94785904 30.66778324 -20.625 27.1875 C-24.04502158 21.48746403 -24.53796395 15.28691127 -23.375 8.8125 C-18.57130288 -1.0118354 -10.15441798 -3.57285077 0 0 Z " fill="#FBFDFD" transform="translate(358.375,57.1875)"/>
<path d="M0 0 C2.68432617 0.94458008 2.68432617 0.94458008 5 3 C5.71918702 6.08285933 5.58052471 9.11142007 5.48828125 12.26171875 C5.48120651 13.16751175 5.47413177 14.07330475 5.46684265 15.00654602 C5.43884228 17.90103583 5.37609441 20.7935945 5.3125 23.6875 C5.28742438 25.64906061 5.26460993 27.61065154 5.24414062 29.57226562 C5.1932457 34.38285366 5.09540903 39.18926467 5 44 C-0.94 44 -6.88 44 -13 44 C-13 30.47 -13 16.94 -13 3 C-5.74626866 -0.62686567 -5.74626866 -0.62686567 0 0 Z " fill="#278ED7" transform="translate(267,35)"/>
<path d="M0 0 C1.485 0.99 1.485 0.99 3 2 C3.5775 1.649375 4.155 1.29875 4.75 0.9375 C7.4517849 -0.18824371 8.25378869 0.25103328 11 1 C11.76570313 0.8246875 12.53140625 0.649375 13.3203125 0.46875 C16.28008571 -0.04899459 18.05457011 0.3019166 20.9375 1.0625 C25.29663015 2.04200692 27.83469491 1.82867053 32 0 C38 0 38 0 39.875 0.5625 C42.49051716 1.10098883 44.41003096 0.54525664 47 0 C47.66 0.33 48.32 0.66 49 1 C44.98550499 8.28899094 40.60663515 13.88536314 32.625 16.875 C25.18685036 18.98037456 19.10404825 18.72298899 12.140625 15.265625 C6.42835827 11.88829941 2.44072565 8.31717228 0 2 C0 1.34 0 0.68 0 0 Z " fill="#10D4B9" transform="translate(256,104)"/>
<path d="M0 0 C2.703125 1.828125 2.703125 1.828125 5 5 C5.63637086 8.74739237 5.51686085 12.39883692 5.375 16.1875 C5.35373047 17.7024707 5.35373047 17.7024707 5.33203125 19.24804688 C5.18385235 26.6322953 5.18385235 26.6322953 4 29 C0.18015204 29.77811718 -2.26840331 30.24386556 -6 29 C-8.63804589 29.39397335 -8.63804589 29.39397335 -11 30 C-11.33 32.97 -11.66 35.94 -12 39 C-12.33 39 -12.66 39 -13 39 C-13.0743839 34.53429551 -13.12871171 30.06892316 -13.16479492 25.6027832 C-13.17984353 24.08481562 -13.20028738 22.56689124 -13.22631836 21.04907227 C-13.26287653 18.86203323 -13.27976523 16.67557104 -13.29296875 14.48828125 C-13.3086792 13.17384033 -13.32438965 11.85939941 -13.34057617 10.50512695 C-12.97729199 6.76629467 -12.27997856 4.94626453 -10 2 C-6.24952518 -0.50031654 -4.44143734 -0.53603554 0 0 Z " fill="#20A8CB" transform="translate(301,56)"/>
<path d="M0 0 C5.53846154 3.07692308 5.53846154 3.07692308 7 6 C7.5811138 13.08958838 7.5811138 13.08958838 5.125 16.9375 C1.63762014 20.32230986 -1.03586938 20.38599822 -5.73828125 20.36328125 C-9.29566317 19.7918883 -10.85459738 17.7487971 -13 15 C-13.33 14.67 -13.66 14.34 -14 14 C-14.38301738 10.74435228 -14.67642942 8.13831966 -12.953125 5.23828125 C-8.85135457 0.25583658 -6.38897676 -0.53241473 0 0 Z " fill="#1B89A6" transform="translate(143,20)"/>
<path d="M0 0 C2.6953125 1.04296875 2.6953125 1.04296875 5 3 C5.38060051 5.78599571 5.47962905 7.93372751 5.3125 10.6875 C5.28994141 11.38939453 5.26738281 12.09128906 5.24414062 12.81445312 C5.18531647 14.5438833 5.09563389 16.27221438 5 18 C1.25151927 19.24949358 -1.10033135 18.57536095 -5 18 C-7.67405239 17.9158515 -10.32361014 17.95304579 -13 18 C-13 13.05 -13 8.1 -13 3 C-5.74626866 -0.62686567 -5.74626866 -0.62686567 0 0 Z " fill="#2D7EDD" transform="translate(267,35)"/>
<path d="M0 0 C1.32 0 2.64 0 4 0 C5.50156874 3.00313748 5.09281204 5.79067522 5.0625 9.125 C5.05347656 10.40632813 5.04445313 11.68765625 5.03515625 13.0078125 C5.02355469 13.99523437 5.01195312 14.98265625 5 16 C-2.42857143 17.28571429 -2.42857143 17.28571429 -6 16 C-6.33 16.66 -6.66 17.32 -7 18 C-8.98 17.34 -10.96 16.68 -13 16 C-13 11.38 -13 6.76 -13 2 C-12.34 2 -11.68 2 -11 2 C-10.67 1.34 -10.34 0.68 -10 0 C-6.27924477 -1.24025174 -3.84293009 -0.60677844 0 0 Z " fill="#17B6C4" transform="translate(267,77)"/>
<path d="M0 0 C2.9375 2.0625 2.9375 2.0625 5 5 C5.4375 8.6875 5.4375 8.6875 5 12 C3 14 3 14 -0.22265625 14.23046875 C-2.12337891 14.20919922 -2.12337891 14.20919922 -4.0625 14.1875 C-5.33222656 14.18105469 -6.60195313 14.17460938 -7.91015625 14.16796875 C-11 14 -11 14 -12 13 C-12.43360507 9.94618141 -12.46397717 7.05051655 -12 4 C-8.57473068 -0.25563764 -5.29763755 -0.85140604 0 0 Z " fill="#2398D2" transform="translate(301,56)"/>
<path d="M0 0 C1.15371094 -0.01417969 2.30742187 -0.02835937 3.49609375 -0.04296875 C6.5625 0.1875 6.5625 0.1875 9.5625 2.1875 C9.5625 5.1575 9.5625 8.1275 9.5625 11.1875 C3.6225 11.1875 -2.3175 11.1875 -8.4375 11.1875 C-8.4375 7.8875 -8.4375 4.5875 -8.4375 1.1875 C-5.60362485 -0.22943757 -3.15720627 0.0175987 0 0 Z " fill="#1FA2CD" transform="translate(262.4375,67.8125)"/>
<path d="M0 0 C1.8871875 -0.00386719 1.8871875 -0.00386719 3.8125 -0.0078125 C7 0.125 7 0.125 9 1.125 C9 4.095 9 7.065 9 10.125 C7.700625 9.96 6.40125 9.795 5.0625 9.625 C0.34580713 9.0934362 -4.25638935 9.04970459 -9 9.125 C-9 6.485 -9 3.845 -9 1.125 C-6.02760209 -0.36119895 -3.30380422 -0.00677009 0 0 Z " fill="#2398D2" transform="translate(263,59.875)"/>
<path d="M0 0 C0.33 0 0.66 0 1 0 C0.67 3.63 0.34 7.26 0 11 C-3 11 -3 11 -5.875 10.4375 C-8.94806025 9.8297464 -8.94806025 9.8297464 -11.75 10.5625 C-12.4925 10.706875 -13.235 10.85125 -14 11 C-16 9 -16 9 -16.125 5.375 C-16.08375 4.26125 -16.0425 3.1475 -16 2 C-10.27778503 1.13626944 -5.69406067 0.98772255 0 2 C0 1.34 0 0.68 0 0 Z " fill="#17B6C4" transform="translate(305,83)"/>
<path d="M0 0 C1.32 0 2.64 0 4 0 C5.4783226 2.95664519 5.06032783 5.74229737 5 9 C4.29875 8.814375 3.5975 8.62875 2.875 8.4375 C-0.33752761 7.9486371 -2.82155525 8.43494316 -6 9 C-6.66 8.67 -7.32 8.34 -8 8 C-8.33 8.66 -8.66 9.32 -9 10 C-9 9.34 -9 8.68 -9 8 C-9.99 8.33 -10.98 8.66 -12 9 C-13 8 -13 8 -13.0625 4.9375 C-13.041875 3.968125 -13.02125 2.99875 -13 2 C-12.34 2 -11.68 2 -11 2 C-10.67 1.34 -10.34 0.68 -10 0 C-6.27924477 -1.24025174 -3.84293009 -0.60677844 0 0 Z " fill="#1BADC8" transform="translate(267,77)"/>
<path d="M0 0 C0 0.99 0 1.98 0 3 C-0.66 3.66 -1.32 4.32 -2 5 C-2.33131413 7.38480046 -2.33131413 7.38480046 -2.31884766 10.18408203 C-2.33871735 11.26505157 -2.35858704 12.34602112 -2.37905884 13.45974731 C-2.39061005 14.63060883 -2.40216125 15.80147034 -2.4140625 17.0078125 C-2.43342865 18.20356903 -2.4527948 19.39932556 -2.4727478 20.63131714 C-2.53267944 24.46247148 -2.5789836 28.29365565 -2.625 32.125 C-2.66316724 34.71746125 -2.70221821 37.30990966 -2.7421875 39.90234375 C-2.8383921 46.26811537 -2.92339961 52.63396395 -3 59 C-3.66 59 -4.32 59 -5 59 C-5.12679156 51.40130429 -5.21434844 43.80288142 -5.2746582 36.20336914 C-5.29980001 33.6183045 -5.33391815 31.03331093 -5.37719727 28.44848633 C-5.43785922 24.73240626 -5.46621419 21.01726614 -5.48828125 17.30078125 C-5.52699089 15.56771477 -5.52699089 15.56771477 -5.56648254 13.79963684 C-5.56960611 4.86085311 -5.56960611 4.86085311 -2.46948242 1.73120117 C-1.65455322 1.15990479 -0.83962402 0.5886084 0 0 Z " fill="#3397B3" transform="translate(136,52)"/>
<path d="M0 0 C2.4375 2.5 2.4375 2.5 4 5 C0.25854164 5.88034314 -3.16178573 6.08343944 -7 6 C-7.99 6 -8.98 6 -10 6 C-10.66 5.34 -11.32 4.68 -12 4 C-8.06335563 0.18264788 -5.47725531 -0.89627814 0 0 Z " fill="#2F96D5" transform="translate(301,56)"/>
<path d="M0 0 C0 3 0 3 -1.71484375 4.90234375 C-3.193901 6.25662992 -4.67306728 7.61079703 -6.15234375 8.96484375 C-8.05106103 11.0562427 -8.61175486 12.24530829 -9 15 C-9.66 15 -10.32 15 -11 15 C-10.49353463 10.60543896 -9.04647166 8.46599839 -6.0625 5.25 C-4.99708984 4.08210938 -4.99708984 4.08210938 -3.91015625 2.890625 C-2 1 -2 1 0 0 Z " fill="#2C93AF" transform="translate(14,34)"/>
<path d="M0 0 C0 0.33 0 0.66 0 1 C-1.03125 1.20625 -2.0625 1.4125 -3.125 1.625 C-7.66812963 2.88338214 -9.91244407 5.53591286 -13 9 C-13.66 8.67 -14.32 8.34 -15 8 C-14.04578192 6.85073734 -13.08647955 5.70569459 -12.125 4.5625 C-11.59132813 3.92441406 -11.05765625 3.28632812 -10.5078125 2.62890625 C-7.40377272 -0.7244217 -4.35820837 -0.08070756 0 0 Z " fill="#2E95B1" transform="translate(118,52)"/>
</svg>
